<svg width="1360" height="960" viewBox="0 0 1360 960" fill="none" xmlns="http://www.w3.org/2000/svg">
<g clip-path="url(#clip0_1_271)">
<path d="M369.878 -60.4661L2128.74 709.483L2561.83 -279.875L802.974 -1049.82L369.878 -60.4661Z" fill="#114C55"/>
<path d="M1932.24 1158.36C1882.37 1125.98 1725.75 1031.58 1633.04 964.068C1540.33 896.558 1447.62 829.048 1375.99 753.297C1304.35 677.546 1288.91 579.819 1203.23 509.562C1117.55 439.305 961.618 396.518 861.885 331.755C762.152 266.991 683.493 193.987 604.833 120.983C526.174 47.9793 425.746 -68.3942 389.929 -106.27L802.974 -1049.82L2561.83 -279.875L1932.24 1158.36Z" fill="url(#paint0_linear_1_271)"/>
<path d="M1943.67 1132.23C1914.22 1098.81 1837.17 986.036 1766.97 931.717C1696.76 877.397 1605.17 871.934 1522.45 806.312C1439.73 740.69 1339.31 609.101 1270.63 537.986C1201.96 466.87 1173.59 436.685 1110.41 379.618C1047.23 322.551 964.504 256.929 891.552 195.585C818.601 134.24 752.674 70.1492 672.699 11.5518C592.723 -47.0455 455.198 -128.074 411.698 -155.999L802.974 -1049.82L2561.83 -279.875L1943.67 1132.23Z" fill="url(#paint1_linear_1_271)"/>
<path d="M2035.31 922.891C2000.07 883.704 1915.41 757.903 1823.85 687.77C1732.29 617.637 1570.49 574.974 1485.95 502.095C1401.42 429.215 1396.9 333.143 1316.64 250.492C1236.38 167.841 1093.22 69.2962 1004.4 6.18801C915.59 -56.9202 865.548 -62.3022 783.76 -128.157C701.971 -194.013 558.685 -345.479 513.67 -388.943L802.974 -1049.82L2561.83 -279.874L2035.31 922.891Z" fill="url(#paint2_linear_1_271)"/>
</g>
<defs>
<linearGradient id="paint0_linear_1_271" x1="1052.81" y1="773.383" x2="1682.4" y2="-664.849" gradientUnits="userSpaceOnUse">
<stop stop-color="#2D629F"/>
<stop offset="1" stop-color="#1A0B28"/>
</linearGradient>
<linearGradient id="paint1_linear_1_271" x1="1064.25" y1="747.257" x2="1682.4" y2="-664.849" gradientUnits="userSpaceOnUse">
<stop stop-color="#2D799F"/>
<stop offset="1" stop-color="#150B28"/>
</linearGradient>
<linearGradient id="paint2_linear_1_271" x1="1155.89" y1="537.916" x2="1682.4" y2="-664.849" gradientUnits="userSpaceOnUse">
<stop stop-color="#2D799F"/>
<stop offset="1" stop-color="#150B28"/>
</linearGradient>
<clipPath id="clip0_1_271">
<rect width="1920" height="1985" fill="white" transform="translate(1702.86 1682.35) rotate(-156.358)"/>
</clipPath>
</defs>
</svg>
