<svg width="132" height="132" viewBox="0 0 132 132" fill="none" xmlns="http://www.w3.org/2000/svg">
<path d="M126.965 19.1016C125.168 19.4141 123.684 19.7656 122.512 20.1562C121.418 20.5469 120.48 21.0547 119.699 21.6797C118.918 22.3047 118.254 23.1641 117.707 24.2578C117.16 25.3516 116.574 26.7578 115.949 28.4766C113.527 35.0391 111.418 40.7031 109.621 45.4688C107.902 50.2344 106.34 54.5703 104.934 58.4766C103.527 62.3047 102.238 65.8594 101.066 69.1406C99.9727 72.4219 98.8008 75.8594 97.5508 79.4531C96.3008 83.0469 94.9727 87.0312 93.5664 91.4062C92.1602 95.7031 90.5195 100.742 88.6445 106.523H86.6523L65.3242 49.9219L44.582 106.523H42.5898L16.8086 34.6875C15.5586 31.4844 14.4648 28.9062 13.5273 26.9531C12.5898 25 11.6133 23.4766 10.5977 22.3828C9.66016 21.2109 8.56641 20.4297 7.31641 20.0391C6.14453 19.5703 4.69922 19.2578 2.98047 19.1016V16.4062H35.793V19.1016C32.4336 19.2578 30.1289 19.6484 28.8789 20.2734C27.6289 20.8203 27.0039 21.7969 27.0039 23.2031C27.0039 23.9844 27.1211 24.8828 27.3555 25.8984C27.668 26.9141 28.0586 28.0859 28.5273 29.4141L47.8633 79.8047L62.1602 41.9531L57.707 31.0547C56.5352 28.3984 55.5195 26.2891 54.6602 24.7266C53.8789 23.0859 53.0195 21.875 52.082 21.0938C51.1445 20.2344 50.0508 19.6875 48.8008 19.4531C47.6289 19.2188 46.1055 19.1016 44.2305 19.1016V16.4062H79.8555V19.1016C76.3398 19.1016 73.7617 19.4922 72.1211 20.2734C70.5586 21.0547 69.7773 22.1875 69.7773 23.6719C69.7773 24.375 69.9336 25.3125 70.2461 26.4844C70.5586 27.6562 71.0273 28.9844 71.6523 30.4688L73.293 34.5703L90.9883 80.1562L107.629 34.9219C109.113 30.8594 109.855 27.4609 109.855 24.7266C109.855 22.9297 109.152 21.6406 107.746 20.8594C106.418 20 104.035 19.4141 100.598 19.1016V16.4062H126.965V19.1016Z" fill="#FAFAFA"/>
<path d="M89.337 62.2812H86.3292C85.8279 60.4909 85.3266 58.9154 84.8253 57.5547C84.3956 56.194 83.8585 54.9766 83.2139 53.9023C82.641 52.7565 81.9965 51.7539 81.2803 50.8945C80.5642 49.9635 79.7406 48.9967 78.8096 47.9941C74.5128 43.4824 69.4997 41.2266 63.7706 41.2266C59.975 41.2266 56.8956 42.2292 54.5323 44.2344C52.2406 46.2396 51.0948 48.9609 51.0948 52.3984C51.0948 55.7643 52.4913 58.9154 55.2842 61.8516C58.0772 64.7878 62.6606 68.0104 69.0342 71.5195C77.1983 75.9596 83.0707 80.2923 86.6514 84.5176C90.3038 88.7428 92.13 93.362 92.13 98.375C92.13 101.526 91.4854 104.462 90.1964 107.184C88.9073 109.905 87.1527 112.268 84.9327 114.273C82.7126 116.279 80.0629 117.854 76.9835 119C73.904 120.146 70.6098 120.719 67.1007 120.719C64.5941 120.719 62.1234 120.504 59.6885 120.074C57.2536 119.645 54.8904 118.928 52.5987 117.926C51.3813 117.496 50.2712 117.174 49.2686 116.959C48.266 116.673 47.4425 116.529 46.7979 116.529C45.8669 116.529 45.0792 116.923 44.4346 117.711C43.7901 118.499 43.432 119.465 43.3604 120.611H40.6749L37.0225 94.6152H39.8155C42.8949 102.135 46.404 107.649 50.3428 111.158C54.2816 114.596 59.044 116.314 64.63 116.314C69.1417 116.314 72.7582 115.061 75.4796 112.555C78.2725 110.048 79.669 106.754 79.669 102.672C79.669 101.096 79.49 99.6999 79.1319 98.4824C78.8454 97.265 78.4158 96.2266 77.8428 95.3672C76.4106 93.0755 74.1189 90.7122 70.9678 88.2773C67.8884 85.8424 64.1645 83.4076 59.796 80.9727C56.3585 79.1823 53.4223 77.3919 50.9874 75.6016C48.5525 73.8112 46.5473 71.9492 44.9717 70.0156C43.4678 68.082 42.3578 66.0768 41.6417 64C40.9255 61.9232 40.5675 59.6673 40.5675 57.2324C40.5675 50.429 42.9307 45.1296 47.6573 41.334C49.6625 39.6868 51.8826 38.4336 54.3175 37.5742C56.7523 36.6432 59.1514 36.1777 61.5147 36.1777C63.6632 36.1777 65.8116 36.4284 67.96 36.9297C70.1801 37.3594 72.4359 38.0039 74.7276 38.8633C75.8734 39.3646 76.9119 39.7227 77.8428 39.9375C78.7738 40.1523 79.5616 40.2598 80.2061 40.2598C82.2113 40.2598 83.5004 38.8991 84.0733 36.1777H86.6514L89.337 62.2812Z" fill="#273671"/>
<g clip-path="url(#clip0_1_58)">
<path d="M126.965 19.1016C125.168 19.4141 123.684 19.7656 122.512 20.1562C121.418 20.5469 120.48 21.0547 119.699 21.6797C118.918 22.3047 118.254 23.1641 117.707 24.2578C117.16 25.3516 116.574 26.7578 115.949 28.4766C113.527 35.0391 111.418 40.7031 109.621 45.4688C107.902 50.2344 106.34 54.5703 104.934 58.4766C103.527 62.3047 102.238 65.8594 101.066 69.1406C99.9727 72.4219 98.8008 75.8594 97.5508 79.4531C96.3008 83.0469 94.9727 87.0312 93.5664 91.4062C92.1602 95.7031 90.5195 100.742 88.6445 106.523H86.6523L65.3242 49.9219L44.582 106.523H42.5898L16.8086 34.6875C15.5586 31.4844 14.4648 28.9062 13.5273 26.9531C12.5898 25 11.6133 23.4766 10.5977 22.3828C9.66016 21.2109 8.56641 20.4297 7.31641 20.0391C6.14453 19.5703 4.69922 19.2578 2.98047 19.1016V16.4062H35.793V19.1016C32.4336 19.2578 30.1289 19.6484 28.8789 20.2734C27.6289 20.8203 27.0039 21.7969 27.0039 23.2031C27.0039 23.9844 27.1211 24.8828 27.3555 25.8984C27.668 26.9141 28.0586 28.0859 28.5273 29.4141L47.8633 79.8047L62.1602 41.9531L57.707 31.0547C56.5352 28.3984 55.5195 26.2891 54.6602 24.7266C53.8789 23.0859 53.0195 21.875 52.082 21.0938C51.1445 20.2344 50.0508 19.6875 48.8008 19.4531C47.6289 19.2188 46.1055 19.1016 44.2305 19.1016V16.4062H79.8555V19.1016C76.3398 19.1016 73.7617 19.4922 72.1211 20.2734C70.5586 21.0547 69.7773 22.1875 69.7773 23.6719C69.7773 24.375 69.9336 25.3125 70.2461 26.4844C70.5586 27.6562 71.0273 28.9844 71.6523 30.4688L73.293 34.5703L90.9883 80.1562L107.629 34.9219C109.113 30.8594 109.855 27.4609 109.855 24.7266C109.855 22.9297 109.152 21.6406 107.746 20.8594C106.418 20 104.035 19.4141 100.598 19.1016V16.4062H126.965V19.1016Z" fill="#FAFAFA"/>
</g>
<g clip-path="url(#clip1_1_58)">
<path d="M126.965 19.1016C125.168 19.4141 123.684 19.7656 122.512 20.1562C121.418 20.5469 120.48 21.0547 119.699 21.6797C118.918 22.3047 118.254 23.1641 117.707 24.2578C117.16 25.3516 116.574 26.7578 115.949 28.4766C113.527 35.0391 111.418 40.7031 109.621 45.4688C107.902 50.2344 106.34 54.5703 104.934 58.4766C103.527 62.3047 102.238 65.8594 101.066 69.1406C99.9727 72.4219 98.8008 75.8594 97.5508 79.4531C96.3008 83.0469 94.9727 87.0312 93.5664 91.4062C92.1602 95.7031 90.5195 100.742 88.6445 106.523H86.6523L65.3242 49.9219L44.582 106.523H42.5898L16.8086 34.6875C15.5586 31.4844 14.4648 28.9062 13.5273 26.9531C12.5898 25 11.6133 23.4766 10.5977 22.3828C9.66016 21.2109 8.56641 20.4297 7.31641 20.0391C6.14453 19.5703 4.69922 19.2578 2.98047 19.1016V16.4062H35.793V19.1016C32.4336 19.2578 30.1289 19.6484 28.8789 20.2734C27.6289 20.8203 27.0039 21.7969 27.0039 23.2031C27.0039 23.9844 27.1211 24.8828 27.3555 25.8984C27.668 26.9141 28.0586 28.0859 28.5273 29.4141L47.8633 79.8047L62.1602 41.9531L57.707 31.0547C56.5352 28.3984 55.5195 26.2891 54.6602 24.7266C53.8789 23.0859 53.0195 21.875 52.082 21.0938C51.1445 20.2344 50.0508 19.6875 48.8008 19.4531C47.6289 19.2188 46.1055 19.1016 44.2305 19.1016V16.4062H79.8555V19.1016C76.3398 19.1016 73.7617 19.4922 72.1211 20.2734C70.5586 21.0547 69.7773 22.1875 69.7773 23.6719C69.7773 24.375 69.9336 25.3125 70.2461 26.4844C70.5586 27.6562 71.0273 28.9844 71.6523 30.4688L73.293 34.5703L90.9883 80.1562L107.629 34.9219C109.113 30.8594 109.855 27.4609 109.855 24.7266C109.855 22.9297 109.152 21.6406 107.746 20.8594C106.418 20 104.035 19.4141 100.598 19.1016V16.4062H126.965V19.1016Z" fill="#FAFAFA"/>
</g>
<defs>
<clipPath id="clip0_1_58">
<rect width="16" height="21" fill="white" transform="translate(47 59)"/>
</clipPath>
<clipPath id="clip1_1_58">
<rect width="20" height="15" fill="white" transform="translate(32 92)"/>
</clipPath>
</defs>
</svg>
