<svg width="120" height="120" viewBox="0 0 120 120" fill="none" xmlns="http://www.w3.org/2000/svg">
<circle cx="60" cy="60" r="60" fill="#3F4142"/>
<path d="M73 73.3333C80.3638 73.3333 86.3333 67.3638 86.3333 60C86.3333 52.6362 80.3638 46.6667 73 46.6667C65.6362 46.6667 59.6667 52.6362 59.6667 60C59.6667 67.3638 65.6362 73.3333 73 73.3333Z" fill="#19BCFE"/>
<path fill-rule="evenodd" clip-rule="evenodd" d="M46.3333 100C53.6971 100 59.6667 94.0304 59.6667 86.6666C59.6667 84.6565 59.6667 80.212 59.6667 73.3333C53.6768 73.3333 49.2324 73.3333 46.3333 73.3333C38.9695 73.3333 33 79.3028 33 86.6666C33 94.0304 38.9695 100 46.3333 100Z" fill="#09CF83"/>
<path fill-rule="evenodd" clip-rule="evenodd" d="M46.3333 73.3333C48.7879 73.3333 53.2324 73.3333 59.6667 73.3333V46.6667C53.2324 46.6667 48.7879 46.6667 46.3333 46.6667C38.9695 46.6667 33 52.6362 33 60C33 67.3638 38.9695 73.3333 46.3333 73.3333Z" fill="#A259FF"/>
<path fill-rule="evenodd" clip-rule="evenodd" d="M46.3333 46.6667C48.7879 46.6667 53.2324 46.6667 59.6667 46.6667V20C53.2324 20 48.7879 20 46.3333 20C38.9695 20 33 25.9695 33 33.3333C33 40.6971 38.9695 46.6667 46.3333 46.6667Z" fill="#F24E1E"/>
<path fill-rule="evenodd" clip-rule="evenodd" d="M73 46.6667H59.6667V20H73C80.3638 20 86.3333 25.9695 86.3333 33.3333C86.3333 40.6971 80.3638 46.6667 73 46.6667Z" fill="#FF7262"/>
</svg>
