<svg width="120" height="120" viewBox="0 0 120 120" fill="none" xmlns="http://www.w3.org/2000/svg">
<circle cx="60" cy="60" r="60" fill="#3F4142"/>
<path d="M31 84.5728L31.4857 83.8957L54.4011 40.4251L54.4496 39.9651L44.3492 20.9928C44.1643 20.6458 43.8749 20.3658 43.5222 20.1923C43.1694 20.0189 42.7709 19.9607 42.3833 20.0261C41.9956 20.0915 41.6383 20.2772 41.362 20.5568C41.0856 20.8364 40.9042 21.1958 40.8433 21.5842L31 84.5728Z" fill="#FFC24A"/>
<path d="M31.2857 84.0585L31.6515 83.3442L54.3296 40.3251L44.2549 21.2785C44.0888 20.9472 43.8198 20.6788 43.4882 20.5132C43.1567 20.3477 42.7804 20.2941 42.4158 20.3604C42.0512 20.4267 41.7179 20.6093 41.4659 20.8809C41.2138 21.1526 41.0565 21.4986 41.0176 21.8671L31.2857 84.0585Z" fill="#FFA712"/>
<path d="M61.8128 54.3143L69.3332 46.5996L61.81 32.2533C61.6444 31.9445 61.3982 31.6864 61.0976 31.5065C60.7969 31.3266 60.4531 31.2316 60.1028 31.2316C59.7524 31.2316 59.4086 31.3266 59.108 31.5065C58.8073 31.6864 58.5611 31.9445 58.3955 32.2533L54.3754 39.9165V40.5708L61.8128 54.3143Z" fill="#F4BD62"/>
<path d="M61.6786 54L68.9903 46.5139L61.6786 32.5704C61.5589 32.2686 61.3545 32.0079 61.0899 31.8196C60.8254 31.6313 60.5121 31.5236 60.1877 31.5094C59.8633 31.4952 59.5418 31.5752 59.2618 31.7396C58.9818 31.904 58.7554 32.1459 58.6098 32.4361L54.5697 40.2336L54.4497 40.6308L61.6786 54Z" fill="#FFA50E"/>
<path d="M31.0057 84.5757L31.2257 84.3528L32.0229 84.0299L61.3385 54.8229L61.71 53.8114L54.3982 39.8736L31.0057 84.5757Z" fill="#F6820C"/>
<path d="M62.75 99.305L89.2884 84.5071L81.7052 37.845C81.6508 37.516 81.5069 37.2084 81.2892 36.9559C81.0714 36.7034 80.7883 36.5158 80.471 36.4137C80.1536 36.3115 79.8142 36.2988 79.4901 36.3769C79.166 36.455 78.8696 36.6209 78.6336 36.8564L31 84.5728L57.3812 99.3021C58.2014 99.7598 59.125 100 60.0642 100C61.0034 100 61.927 99.7598 62.7472 99.3021" fill="#FDE068"/>
<path d="M89.0455 84.3843L81.5252 38.0736C81.5119 37.7589 81.4056 37.4553 81.2197 37.2011C81.0338 36.947 80.7767 36.7536 80.4808 36.6457C80.185 36.5377 79.8638 36.5199 79.5579 36.5945C79.252 36.6691 78.975 36.8329 78.7622 37.0649L31.2857 84.4843L57.3755 99.0564C58.1891 99.5103 59.1054 99.7486 60.037 99.7486C60.9687 99.7486 61.885 99.5103 62.6986 99.0564L89.0455 84.3843Z" fill="#FCCA3F"/>
<path d="M62.75 98.8592C61.9299 99.3168 61.0063 99.5571 60.067 99.5571C59.1278 99.5571 58.2042 99.3168 57.3841 98.8592L31.2172 84.3499L31 84.5728L57.3812 99.302C58.2014 99.7597 59.125 100 60.0642 100C61.0034 100 61.927 99.7597 62.7472 99.302L89.2884 84.5071L89.2227 84.1071L62.75 98.8592Z" fill="#EEAB37"/>
</svg>
