<svg width="120" height="120" viewBox="0 0 120 120" fill="none" xmlns="http://www.w3.org/2000/svg">
<circle cx="60" cy="60" r="60" fill="#3F4142"/>
<path d="M25 25H95V95H25V25Z" fill="#F7DF1E"/>
<path d="M43.4056 83.4971L48.7624 80.2552C49.7959 82.0876 50.736 83.6379 52.991 83.6379C55.1526 83.6379 56.5153 82.7923 56.5153 79.5034V57.1368H63.0935V79.5964C63.0935 86.4098 59.0998 89.511 53.273 89.511C48.0107 89.511 44.956 86.7856 43.4054 83.4966" fill="black"/>
<path d="M66.6667 82.7922L72.0229 79.691C73.4329 81.9937 75.2654 83.6851 78.5074 83.6851C81.2331 83.6851 82.9712 82.3223 82.9712 80.4428C82.9712 78.1873 81.1858 77.3885 78.1784 76.0732L76.5343 75.3679C71.7882 73.3478 68.6399 70.8105 68.6399 65.4537C68.6399 60.5199 72.3989 56.7607 78.2727 56.7607C82.4547 56.7607 85.4619 58.2175 87.6231 62.0236L82.5013 65.3126C81.3736 63.2922 80.1522 62.4936 78.2728 62.4936C76.3462 62.4936 75.1244 63.7152 75.1244 65.3126C75.1244 67.2861 76.3462 68.0851 79.1652 69.3069L80.8097 70.0117C86.4013 72.4082 89.5497 74.8513 89.5497 80.3488C89.5497 86.2697 84.8979 89.5116 78.6486 89.5116C72.5401 89.5116 68.5929 86.5985 66.6667 82.7922Z" fill="black"/>
</svg>
