<svg width="120" height="120" viewBox="0 0 120 120" fill="none" xmlns="http://www.w3.org/2000/svg">
<path d="M60 120C93.1371 120 120 93.1371 120 60C120 26.8629 93.1371 0 60 0C26.8629 0 0 26.8629 0 60C0 93.1371 26.8629 120 60 120Z" fill="#3F4142"/>
<path d="M104.867 45.5614L66.33 49.9286L84.0986 67.6714L105.304 46.4914C105.926 45.8571 105.72 45.4586 104.867 45.5614Z" fill="#EBEDED"/>
<path d="M78.3129 67.5429L62.0914 51.3214L49.2043 75.6L59.6657 86.0614C60.0631 86.4565 60.5346 86.7692 61.053 86.9817C61.5715 87.1943 62.1268 87.3024 62.6871 87.3C63.2475 87.3024 63.8028 87.1943 64.3212 86.9817C64.8397 86.7692 65.3112 86.4565 65.7086 86.0614L78.2871 73.56C78.6823 73.1671 78.9953 72.6995 79.2079 72.1845C79.4206 71.6694 79.5286 71.1172 79.5257 70.56C79.5382 70.0012 79.4371 69.4457 79.2286 68.9271C79.0201 68.4085 78.7086 67.9376 78.3129 67.5429Z" fill="#EBEDED"/>
<path d="M43.2857 32.52V64.2643C43.5028 67.6849 44.8471 70.9372 47.1086 73.5128L49.2 75.6043L62.0871 51.3257L43.2857 32.52Z" fill="#F9F9F9"/>
<path d="M25.3114 73.1743L39.3086 87.1714V53.9572L25.3114 67.9543C24.6272 68.6507 24.2439 69.588 24.2439 70.5643C24.2439 71.5406 24.6272 72.4778 25.3114 73.1743Z" fill="#F9F9F9"/>
<path d="M35.9014 46.5686L21.9043 32.5714V65.76L35.9014 51.7629C36.585 51.0713 36.9684 50.1381 36.9684 49.1657C36.9684 48.1933 36.585 47.2601 35.9014 46.5686Z" fill="#F9F9F9"/>
<path d="M62.0914 51.3214L62.5843 51.8143L49.6971 76.0929L49.2043 75.6L62.0914 51.3214Z" fill="url(#paint0_linear_69_5)"/>
<defs>
<linearGradient id="paint0_linear_69_5" x1="55.6671" y1="63.5829" x2="56.2457" y2="63.8957" gradientUnits="userSpaceOnUse">
<stop stop-opacity="0.03"/>
<stop offset="0.085" stop-color="#090909" stop-opacity="0.027"/>
<stop offset="0.224" stop-color="#212121" stop-opacity="0.023"/>
<stop offset="0.398" stop-color="#494949" stop-opacity="0.018"/>
<stop offset="0.603" stop-color="#808080" stop-opacity="0.012"/>
<stop offset="0.83" stop-color="#C6C6C6" stop-opacity="0.01"/>
<stop offset="1" stop-color="white" stop-opacity="0"/>
</linearGradient>
</defs>
</svg>
