<svg width="120" height="120" viewBox="0 0 120 120" fill="none" xmlns="http://www.w3.org/2000/svg">
<circle cx="60" cy="60" r="60" fill="#3F4142"/>
<path d="M57.3803 20.0215C57.2082 20.0372 56.6608 20.0919 56.1681 20.131C44.8055 21.1553 34.1623 27.2854 27.4213 36.7072C23.6676 41.946 21.2669 47.8884 20.3597 54.1827C20.0391 56.3798 20 57.0288 20 60.0078C20 62.9869 20.0391 63.6358 20.3597 65.833C22.5337 80.8533 33.2239 93.4731 47.7224 98.1489C50.3187 98.9855 53.0557 99.5563 56.1681 99.9003C57.3803 100.033 62.6197 100.033 63.8319 99.9003C69.2043 99.3061 73.7556 97.9768 78.2444 95.6859C78.9326 95.334 79.0655 95.2402 78.9717 95.162C78.9091 95.1151 75.9765 91.1821 72.4575 86.4282L66.0606 77.7882L58.045 65.9268C53.6344 59.4058 50.0059 54.0732 49.9746 54.0732C49.9433 54.0654 49.912 59.3354 49.8964 65.7704C49.8729 77.0376 49.8651 77.4911 49.7243 77.7569C49.521 78.1401 49.3646 78.2964 49.0362 78.4685C48.7859 78.5936 48.567 78.617 47.3861 78.617H46.0332L45.6735 78.3903C45.4389 78.2417 45.2669 78.0462 45.1496 77.8195L44.9853 77.4676L45.001 61.7906L45.0244 46.1057L45.2669 45.8007C45.392 45.6365 45.6579 45.4254 45.8456 45.3238C46.1662 45.1674 46.2913 45.1518 47.6442 45.1518C49.2395 45.1518 49.5054 45.2143 49.9198 45.6678C50.0371 45.7929 54.3773 52.3296 59.5699 60.2033C64.7625 68.077 71.8631 78.8281 75.3509 84.106L81.6852 93.6999L82.0059 93.4887C84.8446 91.6435 87.8475 89.0163 90.2248 86.2796C95.2845 80.4701 98.5455 73.3861 99.6403 65.833C99.9609 63.6358 100 62.9869 100 60.0078C100 57.0288 99.9609 56.3798 99.6403 54.1827C97.4663 39.1624 86.7761 26.5426 72.2776 21.8668C69.7204 21.038 66.999 20.4672 63.9492 20.1232C63.1984 20.045 58.0293 19.959 57.3803 20.0215ZM73.7556 44.2135C74.131 44.4011 74.436 44.7608 74.5455 45.1361C74.608 45.3394 74.6237 49.6868 74.608 59.484L74.5846 73.5425L72.1056 69.7425L69.6188 65.9424V55.723C69.6188 49.116 69.65 45.402 69.697 45.2221C69.8221 44.7843 70.0958 44.4402 70.4712 44.2369C70.7918 44.0727 70.9091 44.0571 72.1368 44.0571C73.2942 44.0571 73.4976 44.0727 73.7556 44.2135Z" fill="black"/>
</svg>
