<svg width="120" height="120" viewBox="0 0 120 120" fill="none" xmlns="http://www.w3.org/2000/svg">
<circle cx="60" cy="60" r="60" fill="#3F4142"/>
<path d="M35.2778 34.0257C37.7745 36.0471 38.7111 35.8929 43.3991 35.5812L87.5966 32.9362C88.5336 32.9362 87.7541 32.0042 87.442 31.8493L80.1013 26.5606C78.6951 25.4724 76.821 24.2261 73.2299 24.5378L30.4336 27.6488C28.8729 27.8031 28.5611 28.5808 29.1828 29.2042L35.2778 34.0257ZM37.9314 44.2913V90.6393C37.9314 93.1299 39.1803 94.0621 41.9913 93.908L90.5641 91.1068C93.3765 90.9527 93.6898 89.239 93.6898 87.2159V41.179C93.6898 39.1588 92.9103 38.0694 91.1884 38.2249L40.4293 41.179C38.5562 41.3359 37.9314 42.2698 37.9314 44.2913ZM85.8824 46.7775C86.194 48.1788 85.8824 49.5787 84.4738 49.7362L82.1336 50.2009V84.4176C80.1013 85.5062 78.2278 86.1285 76.6664 86.1285C74.1665 86.1285 73.5404 85.3504 71.6679 83.0185L56.3595 59.0665V82.2411L61.2036 83.3302C61.2036 83.3302 61.2036 86.1285 57.2954 86.1285L46.5212 86.7513C46.2082 86.1285 46.5212 84.5747 47.614 84.263L50.4256 83.4867V52.8459L46.5219 52.5342C46.2088 51.1329 46.9885 49.1127 49.1767 48.9559L60.735 48.1794L76.6664 72.4431V50.9786L72.6045 50.514C72.2927 48.801 73.5404 47.5572 75.1024 47.4029L85.8824 46.7775ZM26.8403 23.4496L71.3555 20.1824C76.8222 19.7152 78.2284 20.0282 81.6645 22.5157L95.8737 32.4695C98.2187 34.1812 99 34.6473 99 36.5132V91.1068C99 94.5278 97.7496 96.5515 93.3771 96.8609L41.6821 99.9726C38.4 100.128 36.8379 99.6621 35.1191 97.4831L24.6548 83.9519C22.7797 81.4612 22 79.5975 22 77.4174V28.8913C22 26.0933 23.2509 23.7595 26.8403 23.4496Z" fill="black"/>
</svg>
