<svg width="120" height="120" viewBox="0 0 120 120" fill="none" xmlns="http://www.w3.org/2000/svg">
<circle cx="60" cy="60" r="60" fill="#3F4142"/>
<path d="M59.616 20C39.3559 20 40.6211 28.786 40.6211 28.786L40.6437 37.8882H59.9774V40.6211H32.9644C32.9644 40.6211 20 39.1508 20 59.5934C20 80.0361 31.3156 79.3111 31.3156 79.3111H38.0689V69.825C38.0689 69.825 37.7049 58.5093 49.2038 58.5093H68.3794C68.3794 58.5093 79.153 58.6835 79.153 48.0971V30.5929C79.153 30.5929 80.7887 20 59.616 20ZM48.9554 26.1208C50.879 26.1208 52.4337 27.6755 52.4337 29.5991C52.4337 31.5227 50.879 33.0774 48.9554 33.0774C47.0318 33.0774 45.4771 31.5227 45.4771 29.5991C45.4771 27.6755 47.0318 26.1208 48.9554 26.1208Z" fill="url(#paint0_linear_74_13)"/>
<path d="M60.1914 99.3919C80.4515 99.3919 79.1863 90.6059 79.1863 90.6059L79.1638 81.5037H59.83V78.7708H86.843C86.843 78.7708 99.8075 80.241 99.8075 59.7984C99.8075 39.3558 88.4918 40.0807 88.4918 40.0807H81.7386V49.5669C81.7386 49.5669 82.1026 60.8825 70.6036 60.8825H51.428C51.428 60.8825 40.6544 60.7084 40.6544 71.2947V88.799C40.6544 88.799 39.0187 99.3919 60.1914 99.3919ZM70.8521 93.271C68.9285 93.271 67.3738 91.7163 67.3738 89.7928C67.3738 87.8692 68.9285 86.3145 70.8521 86.3145C72.7756 86.3145 74.3303 87.8692 74.3303 89.7928C74.3303 91.7163 72.7756 93.271 70.8521 93.271Z" fill="url(#paint1_linear_74_13)"/>
<defs>
<linearGradient id="paint0_linear_74_13" x1="786.965" y1="734.108" x2="4741.93" y2="4649.62" gradientUnits="userSpaceOnUse">
<stop stop-color="#387EB8"/>
<stop offset="1" stop-color="#366994"/>
</linearGradient>
<linearGradient id="paint1_linear_74_13" x1="1172.64" y1="1260.72" x2="5419.85" y2="5275.74" gradientUnits="userSpaceOnUse">
<stop stop-color="#FFE052"/>
<stop offset="1" stop-color="#FFC331"/>
</linearGradient>
</defs>
</svg>
