<svg width="120" height="120" viewBox="0 0 120 120" fill="none" xmlns="http://www.w3.org/2000/svg">
<circle cx="60" cy="60" r="60" fill="#3F4142"/>
<path d="M67.1437 60.6024C67.1437 56.7773 63.9456 53.676 60 53.676C56.0549 53.676 52.8563 56.7773 52.8563 60.6024C52.8563 64.428 56.0549 67.5291 60 67.5291C63.9456 67.5291 67.1437 64.428 67.1437 60.6024Z" fill="#53C1DE"/>
<path fill-rule="evenodd" clip-rule="evenodd" d="M83.2011 47.7432C84.7096 41.7994 86.6059 30.7773 79.9211 27.0404C73.2675 23.3199 64.6091 30.4491 60.0371 34.7285C55.4784 30.4918 46.5768 23.393 39.8977 27.1417C33.2467 30.8747 35.2977 41.7141 36.8397 47.6952C30.6355 49.4037 20 53.0837 20 60.6024C20 68.0997 30.6244 72.1035 36.7919 73.8104C35.2442 79.8245 33.2959 90.5091 39.9554 94.2339C46.6595 97.9819 55.5333 91.052 60.1477 86.7259C64.7491 91.0304 73.3243 98.0056 79.9792 94.2704C86.6549 90.5235 84.9163 79.6491 83.3741 73.6333C89.3528 71.9227 100 68.0061 100 60.6024C100 53.156 89.3075 49.4461 83.2011 47.7432ZM82.4432 70.4453C81.4307 67.3376 80.064 64.0328 78.3923 60.6189C79.988 57.2856 81.3016 54.0235 82.2859 50.9357C86.7624 52.1941 96.5827 55.0701 96.5827 60.6024C96.5827 66.1867 87.1589 69.0899 82.4432 70.4453ZM78.2667 91.4027C73.3013 94.1893 65.9256 87.5189 62.5275 84.3491C64.7819 81.9584 67.0347 79.1792 69.2333 76.0931C73.1011 75.7605 76.7547 75.2165 80.0683 74.4739C81.1536 78.7291 83.2539 88.6035 78.2667 91.4027ZM41.663 91.3629C36.6971 88.5867 38.9669 79.0523 40.1055 74.6221C43.3822 75.3251 47.0096 75.8307 50.8864 76.1355C53.0995 79.1552 55.4176 81.9309 57.7536 84.3619C54.8675 87.0688 46.652 94.152 41.663 91.3629ZM23.4173 60.6024C23.4173 54.9973 33.1789 52.1421 37.7574 50.8869C38.7587 54.044 40.0719 57.3451 41.6566 60.6832C40.0513 64.0709 38.7194 67.4243 37.7089 70.6187C33.3432 69.4069 23.4173 66.2109 23.4173 60.6024ZM41.6099 30.0094C46.596 27.2111 54.3325 34.0262 57.6424 37.0937C55.3184 39.5134 53.0216 42.2683 50.8275 45.2707C47.0651 45.6088 43.4633 46.1517 40.1522 46.8792C38.91 42.0552 36.6291 32.8048 41.6099 30.0094ZM71.6781 48.8723C74.2307 49.1845 76.6763 49.6 78.9725 50.1083C78.2832 52.2507 77.424 54.4909 76.412 56.7875C74.9451 54.0888 73.3704 51.4443 71.6781 48.8723ZM60.0381 39.4616C61.6144 41.1173 63.1931 42.9661 64.7461 44.972C61.596 44.8275 58.4408 44.8269 55.2907 44.9699C56.8451 42.9826 58.4373 41.1365 60.0381 39.4616ZM43.6173 56.7851C42.6221 54.4965 41.7706 52.2464 41.0753 50.0733C43.3578 49.5781 45.792 49.1733 48.328 48.8661C46.6309 51.4325 45.0589 54.076 43.6173 56.7851ZM48.4008 72.5752C45.7811 72.2917 43.31 71.9075 41.0282 71.4259C41.7345 69.2147 42.6047 66.916 43.6212 64.5781C45.0827 67.3155 46.6787 69.9845 48.4008 72.5752ZM60.1328 81.9773C58.5131 80.2827 56.8973 78.4083 55.3195 76.3923C58.4875 76.5128 61.6616 76.5131 64.8293 76.376C63.2715 78.4288 61.6984 80.3059 60.1328 81.9773ZM76.4445 64.4592C77.5139 66.8224 78.4152 69.1085 79.1312 71.2824C76.8115 71.7957 74.3072 72.2091 71.6685 72.516C73.3733 69.8952 74.9731 67.2096 76.4445 64.4592ZM67.3261 72.9176C62.4803 73.2533 57.6043 73.2496 52.7568 72.9451C50.0024 69.044 47.5504 64.9413 45.4339 60.6821C47.5403 56.4317 49.9744 52.3371 52.7157 48.4421C57.5667 48.0867 62.4475 48.0856 67.2984 48.4443C70.0163 52.3389 72.4467 56.4229 74.6019 60.6349C72.4723 64.8832 70.0253 68.9861 67.3261 72.9176ZM78.2141 29.9109C83.2016 32.7001 80.9816 42.606 79.892 46.9136C76.5731 46.1709 72.9688 45.6184 69.1955 45.2749C66.9971 42.2401 64.7195 39.4805 62.4331 37.092C65.7853 33.9584 73.2749 27.149 78.2141 29.9109Z" fill="#53C1DE"/>
</svg>
