<svg width="120" height="120" viewBox="0 0 120 120" fill="none" xmlns="http://www.w3.org/2000/svg">
<circle cx="60" cy="60" r="60" fill="#3F4142"/>
<path d="M40 52C42.6667 41.3333 49.3333 36 60 36C76 36 78 48 86 50C91.3333 51.3333 96 49.3333 100 44C97.3333 54.6667 90.6667 60 80 60C64 60 62 48 54 46C48.6667 44.6667 44 46.6667 40 52ZM20 76C22.6667 65.3333 29.3333 60 40 60C56 60 58 72 66 74C71.3333 75.3333 76 73.3333 80 68C77.3333 78.6667 70.6667 84 60 84C44 84 42 72 34 70C28.6667 68.6667 24 70.6667 20 76Z" fill="#44A8B3"/>
</svg>
