<svg width="120" height="120" viewBox="0 0 120 120" fill="none" xmlns="http://www.w3.org/2000/svg">
<circle cx="60" cy="60" r="60" fill="#3F4142"/>
<path d="M25 60V95H60H95V60V25H60H25V60Z" fill="#007ACC"/>
<path d="M40.4796 60.2322L40.4574 63.0989H45.0129H49.5685V76.0433V88.9877H52.7907H56.0129V76.0433V63.0989H60.5685H65.1241V60.2877C65.1241 58.7322 65.0907 57.4322 65.0463 57.3989C65.0129 57.3544 59.4685 57.3322 52.7463 57.3433L40.5129 57.3766L40.4796 60.2322Z" fill="white"/>
<path d="M81.4831 57.2953C83.2608 57.7397 84.6164 58.5286 85.8608 59.8175C86.5053 60.5064 87.4608 61.7619 87.5386 62.0619C87.5608 62.1508 84.5164 64.1953 82.672 65.3397C82.6053 65.3841 82.3386 65.0953 82.0386 64.6508C81.1386 63.3397 80.1942 62.773 78.7497 62.673C76.6275 62.5286 75.2608 63.6397 75.272 65.4953C75.272 66.0397 75.3497 66.3619 75.572 66.8064C76.0386 67.773 76.9053 68.3508 79.6275 69.5286C84.6386 71.6841 86.7831 73.1064 88.1164 75.1286C89.6053 77.3841 89.9386 80.9841 88.9275 83.6619C87.8164 86.573 85.0608 88.5508 81.1831 89.2064C79.9831 89.4175 77.1386 89.3841 75.8497 89.1508C73.0386 88.6508 70.372 87.2619 68.7275 85.4397C68.0831 84.7286 66.8275 82.873 66.9053 82.7397C66.9386 82.6953 67.2275 82.5175 67.5497 82.3286C67.8608 82.1508 69.0386 81.473 70.1497 80.8286L72.1608 79.6619L72.5831 80.2841C73.172 81.1841 74.4608 82.4175 75.2386 82.8286C77.472 84.0064 80.5386 83.8397 82.0497 82.4841C82.6942 81.8953 82.9608 81.2841 82.9608 80.3841C82.9608 79.573 82.8608 79.2175 82.4386 78.6064C81.8942 77.8286 80.7831 77.173 77.6275 75.8064C74.0164 74.2508 72.4608 73.2841 71.0386 71.7508C70.2164 70.8619 69.4386 69.4397 69.1164 68.2508C68.8497 67.2619 68.7831 64.7841 68.9942 63.7841C69.7386 60.2953 72.372 57.8619 76.172 57.1397C77.4053 56.9064 80.272 56.9953 81.4831 57.2953Z" fill="white"/>
</svg>
